<?xml version="1.0" encoding="utf-8"?>
<!-- Generator: Adobe Illustrator 27.5.0, SVG Export Plug-In . SVG Version: 6.00 Build 0)  -->
<svg version="1.1" id="圖層_1" xmlns="http://www.w3.org/2000/svg" xmlns:xlink="http://www.w3.org/1999/xlink" x="0px" y="0px"
	 viewBox="0 0 231 61" style="enable-background:new 0 0 231 61;" xml:space="preserve">
<style type="text/css">
	.st0{fill:#FFFFFF;}
</style>
<path class="st0" d="M4.9,60.6c-0.8,0-1.5-0.3-1.9-0.8c-0.5-0.6-0.7-1.2-0.7-2c0-0.8,0.2-1.8,0.6-2.9c0.4-1.1,1-2.3,1.7-3.6
	c1.4-2.6,3.4-5.3,6-8.3l3.9-4.9c-1.6,1.5-3.1,2.5-4.6,3.2C8.5,41.7,7.3,42,6.3,42c-1.7,0-3.1-0.7-4.2-2.2c-1.1-1.5-1.6-3.3-1.6-5.5
	c0-2.3,0.4-4.4,1.3-6.2c0.9-1.9,2-3.4,3.4-4.8c1.4-1.3,2.9-2.3,4.6-3c1.7-0.7,3.3-1.1,4.9-1.1c0.9,0,1.7,0.1,2.4,0.3
	s1.3,0.5,1.8,0.8c0.3,0.2,0.5,0.3,0.8,0.5c0.2,0.2,0.5,0.4,0.7,0.6c0.3-0.2,0.6-0.4,0.9-0.5c0.3-0.1,0.6-0.3,1-0.4
	c0.4-0.1,0.7-0.2,1.1-0.2c0.9,0,1.6,0.2,2.1,0.6s0.8,0.8,0.8,1.3c0,0.3-0.1,0.5-0.2,0.8l-7.3,13.8l0.6-0.5c2.5-1.4,4.5-2.6,6.1-3.4
	c1.6-0.8,2.8-1.4,3.8-1.8c0.7-0.3,1.3-0.5,1.8-0.7c0.5-0.1,0.8-0.2,1-0.2c0.5,0,0.8,0.2,1.1,0.6c0.3,0.4,0.4,0.8,0.4,1.3
	c0,0.6-0.2,1.2-0.5,1.8c-0.3,0.6-0.9,1.1-1.6,1.3c-1.2,0.6-2.7,1.3-4.4,2.1c-1.7,0.8-3.5,1.6-5.4,2.7c-1.9,1-3.6,2.2-5.3,3.6
	l-6.1,11c-1,2.3-1.8,3.9-2.6,4.7C6.9,60.2,6,60.6,4.9,60.6z M8.6,36.8c0.6,0,1.5-0.4,2.4-1.2c1-0.8,1.9-1.8,2.8-2.8
	c0.9-1.1,1.7-2.1,2.3-3.1s0.9-1.7,0.9-2.1c0-0.9-0.4-1.6-1.3-2.1c-0.9-0.5-1.6-0.7-2.2-0.7c-1.3,0-2.6,0.4-3.7,1.2
	c-1.1,0.8-2.1,1.9-2.8,3.2C6.4,30.6,6,32,6,33.4c0,0.7,0.1,1.4,0.4,2.2S7.5,36.8,8.6,36.8z M34.3,42.8c-0.8,0-1.8-0.2-2.8-0.7
	c-1-0.4-1.9-1.1-2.7-2.1c-0.8-1-1.2-2.3-1.2-3.9c0-1.3,0.3-2.9,0.9-4.8c0.6-1.9,1.6-3.7,2.8-5.6c1.3-1.9,2.9-3.4,5-4.6
	c2-1.2,4.4-1.9,7-1.9c1.1,0,2.2,0.2,3.4,0.6c1.2,0.4,2.2,1.1,3.1,2c0.9,0.9,1.3,2.2,1.3,3.8c0,1.3-0.3,2.9-1,4.7
	c0.4,0.5,0.9,0.7,1.6,0.7c0.6,0,1.4-0.3,2.2-0.8c0.9-0.5,1.7-1.2,2.5-1.9c0.9-0.8,1.6-1.5,2.3-2.2c0.7-0.8,1.3-1.4,1.7-1.8
	c0.1-0.1,0.3-0.2,0.5-0.2c0.5,0,0.8,0.3,1,0.9s0.2,1.3-0.1,2.2c-0.3,0.9-1,1.8-2,2.7c-0.6,0.7-1.4,1.5-2.3,2.5
	c-0.9,1-1.9,1.8-2.9,2.6c-1,0.7-2.1,1.1-3.2,1.1c-1.1,0-2.1-0.4-3.1-1.1c-1.5,2.4-3.5,4.3-5.9,5.8C40,42.1,37.3,42.8,34.3,42.8z
	 M37.1,37.3c1.3,0,2.5-0.4,3.7-1.3s2.1-2,2.8-3.3c0.7-1.3,1.1-2.7,1.1-4.1c0-0.5-0.1-1.1-0.2-1.7c-0.1-0.6-0.4-1.1-0.8-1.5
	c-0.4-0.4-1-0.6-1.9-0.6c-1.3,0-2.5,0.4-3.7,1.2c-1.1,0.8-2.1,1.9-2.8,3.2c-0.7,1.3-1.1,2.6-1.1,4.1c0,0.5,0.1,1.1,0.2,1.8
	c0.1,0.6,0.4,1.2,0.8,1.6C35.6,37.1,36.2,37.3,37.1,37.3z M60.8,42.8c-0.8,0-1.8-0.2-2.8-0.7c-1-0.4-1.9-1.1-2.7-2.1
	c-0.8-1-1.2-2.3-1.2-3.9c0-1.3,0.3-2.9,0.9-4.8c0.6-1.9,1.6-3.7,2.8-5.6c1.3-1.9,2.9-3.4,5-4.6c2-1.2,4.4-1.9,7-1.9
	c1.1,0,2.2,0.2,3.4,0.6c1.2,0.4,2.2,1.1,3.1,2c0.9,0.9,1.3,2.2,1.3,3.8c0,1.3-0.3,2.9-1,4.7c0.4,0.5,0.9,0.7,1.6,0.7
	c0.6,0,1.4-0.3,2.2-0.8c0.9-0.5,1.7-1.2,2.5-1.9c0.9-0.8,1.6-1.5,2.3-2.2c0.7-0.8,1.3-1.4,1.7-1.8c0.1-0.1,0.3-0.2,0.5-0.2
	c0.5,0,0.8,0.3,1,0.9s0.2,1.3-0.1,2.2c-0.3,0.9-1,1.8-2,2.7c-0.6,0.7-1.4,1.5-2.3,2.5c-0.9,1-1.9,1.8-2.9,2.6
	c-1,0.7-2.1,1.1-3.2,1.1c-1.1,0-2.1-0.4-3.1-1.1c-1.5,2.4-3.5,4.3-5.9,5.8C66.5,42.1,63.8,42.8,60.8,42.8z M63.6,37.3
	c1.3,0,2.5-0.4,3.7-1.3s2.1-2,2.8-3.3c0.7-1.3,1.1-2.7,1.1-4.1c0-0.5-0.1-1.1-0.2-1.7c-0.1-0.6-0.4-1.1-0.8-1.5
	c-0.4-0.4-1-0.6-1.9-0.6c-1.3,0-2.5,0.4-3.7,1.2c-1.1,0.8-2.1,1.9-2.8,3.2c-0.7,1.3-1.1,2.6-1.1,4.1c0,0.5,0.1,1.1,0.2,1.8
	c0.1,0.6,0.4,1.2,0.8,1.6C62.1,37.1,62.7,37.3,63.6,37.3z M86.5,42.8c-1.5,0-2.8-0.4-3.8-1.3c-1-0.9-1.5-2.3-1.5-4.3
	c0-2.6,0.6-5,1.7-7.2c1.1-2.2,2.6-4.1,4.3-5.7c1.7-1.6,3.6-2.8,5.5-3.7c1.9-0.9,3.7-1.3,5.2-1.3c1.2,0,2.2,0.2,3.1,0.6
	c0.5,0.2,0.8,0.5,1.2,0.8l0.2-0.5l0.6-1.3l0.3-0.8c0-0.2,0.3-0.8,0.8-2c0.5-1.2,1.2-2.7,2-4.7c0.8-1.8,1.4-3.4,1.9-4.7
	c0.5-1.3,0.8-2,0.8-2.1c0.3-1,0.8-2,1.5-2.8s1.6-1.2,2.8-1.2c0.8,0,1.4,0.2,2,0.5c0.5,0.3,0.8,1,0.8,2c0,0.8-0.2,1.6-0.5,2.4
	c-0.3,0.9-0.6,1.6-0.9,2.3c-1,2-2.1,4.2-3.2,6.7c-1.1,2.4-2.3,4.9-3.4,7.5c-1.1,2.6-2.2,5-3.2,7.4c-1,2.4-1.9,4.4-2.7,6.2
	c0,0,0,0.1,0,0.2s0,0.1,0,0.2c0,0.4,0.1,0.8,0.3,1.2c0.2,0.4,0.5,0.6,0.9,0.6c0.1,0,0.2,0,0.4-0.1c1.5-0.5,3.1-1.3,4.8-2.4
	c1.6-1.1,3.1-2.4,4.5-3.7c1.4-1.3,2.5-2.5,3.3-3.5c0.3-0.4,0.6-0.5,1-0.5c0.3,0,0.6,0.1,0.8,0.4c0.2,0.3,0.4,0.7,0.4,1.2
	c0,0.4-0.1,0.9-0.3,1.4c-0.2,0.5-0.6,1.1-1.1,1.8c-1.6,1.8-3.3,3.5-5.1,5.1c-1.8,1.6-3.5,2.9-5.2,3.9c-1.8,1-3.5,1.5-5.1,1.5
	c-1.5,0-2.7-0.4-3.6-1.3c-0.9-0.9-1.3-2.2-1.3-3.9v-0.3c0-0.1,0-0.2,0-0.3c-1,1.7-2.4,3.1-4.3,4.2C90.1,42.2,88.3,42.8,86.5,42.8z
	 M88.8,37.2c1.3,0,2.5-0.4,3.6-1.2c1.1-0.8,2.2-1.8,3.2-3c1-1.2,1.8-2.5,2.5-3.8c0.7-1.3,1.3-2.5,1.8-3.6l0.4-1l0.6-1.3
	c-1.2,0-2.5,0.3-3.9,0.8c-2.4,0.8-4.5,2.2-6.3,4.3c-1.8,2-2.8,4.5-2.9,7.4C87.7,36.8,88.1,37.2,88.8,37.2z M124.2,17.2
	c-1.3,0-2.2-0.2-2.7-0.6c-0.5-0.4-0.8-1-0.9-1.6c0-1,0.4-1.9,1.1-2.9c0.7-1,1.8-1.4,3.2-1.4c1.2,0,2.1,0.2,2.5,0.7
	c0.5,0.5,0.7,1,0.7,1.8c0,0.8-0.3,1.7-0.9,2.6C126.6,16.7,125.6,17.2,124.2,17.2z M116.5,42.8c-1.7,0-3-0.4-4-1.3
	c-1-0.9-1.4-2.2-1.4-4.1c0-1.3,0.2-2.5,0.7-3.8c0.5-1.3,1-2.5,1.6-3.6c0.6-1.1,1-2.1,1.4-2.9c0.1-0.3,0.3-0.7,0.5-1.2
	c0.3-0.6,0.6-1.1,0.8-1.7l1.1-2.2c0.4-0.6,0.8-1,1.2-1.2c0.5-0.2,0.9-0.4,1.4-0.4c0.8,0,1.5,0.3,2,0.8c0.6,0.5,0.9,1.1,0.9,1.9
	c0,0.2-0.1,0.4-0.1,0.6c0,0.2-0.1,0.4-0.2,0.6c-0.5,0.8-0.9,1.6-1.2,2.3c-0.3,0.7-0.7,1.4-1,2.2c-0.3,0.6-0.7,1.3-1.1,2.2
	c-0.4,0.9-0.8,1.8-1.2,2.7c-0.3,0.9-0.5,1.7-0.5,2.3c0,0.6,0.1,0.9,0.4,1.1c0.3,0.2,0.7,0.2,1.2,0.2c0.8,0,1.8-0.3,2.8-0.8
	c1-0.5,2-1.2,2.9-1.9c1-0.8,1.8-1.6,2.7-2.3c0.8-0.8,1.4-1.5,1.8-2c0.4-0.4,0.8-0.6,1.2-0.6c0.4,0,0.7,0.2,0.9,0.5
	c0.2,0.3,0.4,0.8,0.4,1.3c0,0.5-0.1,1-0.4,1.5c-0.2,0.5-0.6,1.1-1.2,1.5c-1.4,1.4-2.8,2.7-4.3,4c-1.5,1.2-3,2.3-4.6,3.1
	C119.7,42.4,118.1,42.8,116.5,42.8z M132.6,42.8c-1.5,0-2.7-0.5-3.8-1.6c-1.1-1.1-1.7-2.6-1.7-4.6c0-1.6,0.2-3.4,0.7-5.4
	c0.5-2,1-3.8,1.5-5.5c0.6-1.7,1-3.1,1.3-4c0.4-0.9,0.9-1.5,1.6-1.9c0.6-0.4,1.3-0.6,1.9-0.6c0.5,0,1.1,0.2,1.6,0.5
	c0.5,0.4,0.8,0.8,0.8,1.3c0,0.2,0,0.4-0.1,0.6c-0.4,1.4-0.9,2.8-1.5,4.4c-0.6,1.6-1.1,3.2-1.5,4.7c-0.4,1.6-0.7,3-0.7,4.2
	c0,0.3,0.1,0.7,0.2,1.3c0.1,0.5,0.3,0.8,0.6,0.8c0.5,0,1.1-0.3,1.8-0.9c0.7-0.6,1.4-1.4,2.2-2.5c1-1,1.9-2.4,2.8-4
	c0.9-1.6,1.7-3.2,2.5-4.7c0.8-1.5,1.5-2.7,2.2-3.8c0.7-1.1,1.5-1.6,2.2-1.6c0.9,0,1.5,0.3,1.8,0.8c0.4,0.5,0.5,1.2,0.5,2
	c0,1.2-0.3,2.3-0.8,3.3c-0.5,1.1-1.2,2.2-2.1,3.3c-0.8,1.2-1.7,2.5-2.5,4c0.4,0.4,0.9,0.7,1.6,0.7c1.6,0,3.1-0.4,4.8-1.1
	c1.6-0.8,3.1-1.7,4.6-2.8c0.3-0.2,0.6-0.3,0.9-0.3c0.4,0,0.7,0.2,0.9,0.5c0.2,0.3,0.4,0.8,0.4,1.3c0,0.6-0.2,1.2-0.5,1.8
	c-0.3,0.6-0.9,1.2-1.7,1.8c-1.6,1.2-3.1,2.1-4.7,2.8c-1.6,0.7-3.3,1-5.2,1c-0.6,0-1.2-0.1-1.8-0.3c-0.6-0.2-1.3-0.6-2.3-1.2
	c-1.4,1.8-2.8,3.2-4.2,4.1C135.6,42.3,134.1,42.8,132.6,42.8z M164.2,17.2c-1.3,0-2.2-0.2-2.7-0.6c-0.5-0.4-0.8-1-0.9-1.6
	c0-1,0.4-1.9,1.1-2.9c0.7-1,1.8-1.4,3.2-1.4c1.2,0,2.1,0.2,2.5,0.7c0.5,0.5,0.7,1,0.7,1.8c0,0.8-0.3,1.7-0.9,2.6
	C166.6,16.7,165.6,17.2,164.2,17.2z M156.5,42.8c-1.7,0-3-0.4-4-1.3c-1-0.9-1.4-2.2-1.4-4.1c0-1.3,0.2-2.5,0.7-3.8
	c0.5-1.3,1-2.5,1.6-3.6c0.6-1.1,1-2.1,1.4-2.9c0.1-0.3,0.3-0.7,0.5-1.2c0.3-0.6,0.6-1.1,0.8-1.7l1.1-2.2c0.4-0.6,0.8-1,1.2-1.2
	c0.5-0.2,0.9-0.4,1.4-0.4c0.8,0,1.5,0.3,2,0.8c0.6,0.5,0.9,1.1,0.9,1.9c0,0.2-0.1,0.4-0.1,0.6c0,0.2-0.1,0.4-0.2,0.6
	c-0.5,0.8-0.9,1.6-1.2,2.3c-0.3,0.7-0.7,1.4-1,2.2c-0.3,0.6-0.7,1.3-1.1,2.2c-0.4,0.9-0.8,1.8-1.2,2.7c-0.3,0.9-0.5,1.7-0.5,2.3
	c0,0.6,0.1,0.9,0.4,1.1c0.3,0.2,0.7,0.2,1.2,0.2c0.8,0,1.8-0.3,2.8-0.8c1-0.5,2-1.2,2.9-1.9c1-0.8,1.8-1.6,2.7-2.3
	c0.8-0.8,1.4-1.5,1.8-2c0.4-0.4,0.8-0.6,1.2-0.6c0.4,0,0.7,0.2,0.9,0.5c0.2,0.3,0.4,0.8,0.4,1.3c0,0.5-0.1,1-0.4,1.5
	c-0.2,0.5-0.6,1.1-1.2,1.5c-1.4,1.4-2.8,2.7-4.3,4c-1.5,1.2-3,2.3-4.6,3.1C159.7,42.4,158.1,42.8,156.5,42.8z M167.6,42.8
	c-0.7,0-1.3-0.2-1.7-0.7c-0.4-0.5-0.6-1-0.6-1.7c0-0.5,0.3-1.6,0.9-3c0.6-1.5,1.4-3.1,2.2-4.8c1.1-2.2,2-4.2,2.8-5.8
	c0.8-1.6,1.4-2.9,1.8-3.8c0.4-0.9,0.9-1.6,1.6-2c0.6-0.4,1.2-0.7,1.8-0.7c0.5,0,0.9,0.2,1.3,0.6c0.4,0.4,0.6,0.9,0.6,1.6
	c0,0.3,0,0.6-0.1,0.9c-0.1,0.3-0.2,0.6-0.3,1c0.6-0.8,1.6-1.6,2.9-2.4c1.3-0.8,2.6-1.4,4.1-2c1.5-0.5,2.8-0.8,4.1-0.8
	c1.1,0,2,0.3,2.8,0.8c0.8,0.5,1.1,1.4,1.1,2.7c0,1.1-0.2,2.3-0.7,3.5c-0.5,1.2-1.1,2.5-1.7,3.6c-0.7,1.2-1.4,2.3-2,3.2
	c-0.6,0.9-1.1,1.7-1.4,2.3c-0.3,0.3-0.4,0.7-0.4,1.2c0,0.4,0.2,0.6,0.7,0.6c0.1,0,0.3,0,0.5,0c0.2,0,0.4-0.2,0.7-0.3
	c1.6-0.6,3.1-1.3,4.7-2.2c1.6-0.9,3-1.8,4.3-2.8c1.3-1,2.4-1.8,3.2-2.5c0.3-0.3,0.7-0.4,1-0.4c0.8,0,1.1,0.5,1.1,1.4
	c0,0.6-0.2,1.4-0.6,2.2c-0.4,0.8-1,1.5-1.9,2.2c-1.5,1.1-2.9,2.1-4.3,3c-1.3,0.9-2.7,1.8-4.2,2.5c-1.5,0.8-3.2,1.4-5.3,2
	c-1.1,0.3-2,0.5-2.7,0.5c-2.1,0-3.2-1.2-3.2-3.5c0-0.1,0-0.3,0-0.4c0-0.1,0-0.3,0.1-0.5c0.1-0.9,0.4-2,1-3.2c0.6-1.2,1.3-2.5,2-3.7
	c0.7-1.2,1.3-2.3,1.9-3.3c0.6-1,0.8-1.8,0.8-2.3c0-0.8-0.4-1.1-1.1-1.1c-1.3,0-2.6,0.4-3.8,1.2c-1.2,0.8-2.3,1.8-3.4,2.9
	c-1,1.2-2,2.4-2.9,3.7c-0.9,1.3-1.6,2.4-2.3,3.5c-0.5,0.8-0.9,1.7-1.4,2.8c-0.4,1.1-1,2-1.6,2.8C169.3,42.4,168.6,42.8,167.6,42.8z
	 M202.4,60.6c-0.8,0-1.5-0.3-1.9-0.8c-0.5-0.6-0.7-1.2-0.7-2c0-0.8,0.2-1.8,0.6-2.9c0.4-1.1,1-2.3,1.7-3.6c1.4-2.6,3.4-5.3,6-8.3
	l3.9-4.9c-1.6,1.5-3.1,2.5-4.6,3.2c-1.4,0.6-2.6,0.9-3.6,0.9c-1.7,0-3.1-0.7-4.2-2.2c-1.1-1.5-1.6-3.3-1.6-5.5
	c0-2.3,0.4-4.4,1.3-6.2c0.9-1.9,2-3.4,3.4-4.8c1.4-1.3,2.9-2.3,4.6-3c1.7-0.7,3.3-1.1,4.9-1.1c0.9,0,1.7,0.1,2.4,0.3
	c0.7,0.2,1.3,0.5,1.8,0.8c0.3,0.2,0.5,0.3,0.8,0.5c0.2,0.2,0.5,0.4,0.7,0.6c0.3-0.2,0.6-0.4,0.9-0.5c0.3-0.1,0.6-0.3,1-0.4
	c0.4-0.1,0.7-0.2,1.1-0.2c0.9,0,1.6,0.2,2.1,0.6s0.8,0.8,0.8,1.3c0,0.3-0.1,0.5-0.2,0.8l-7.3,13.8l0.6-0.5c2.5-1.4,4.5-2.6,6.1-3.4
	c1.6-0.8,2.8-1.4,3.8-1.8c0.7-0.3,1.3-0.5,1.8-0.7c0.5-0.1,0.8-0.2,1-0.2c0.5,0,0.8,0.2,1.1,0.6c0.3,0.4,0.4,0.8,0.4,1.3
	c0,0.6-0.2,1.2-0.5,1.8c-0.3,0.6-0.9,1.1-1.6,1.3c-1.2,0.6-2.7,1.3-4.4,2.1c-1.7,0.8-3.5,1.6-5.4,2.7c-1.9,1-3.6,2.2-5.3,3.6
	l-6.1,11c-1,2.3-1.8,3.9-2.6,4.7C204.4,60.2,203.5,60.6,202.4,60.6z M206.1,36.8c0.6,0,1.5-0.4,2.4-1.2c1-0.8,1.9-1.8,2.8-2.8
	c0.9-1.1,1.7-2.1,2.3-3.1c0.6-1,0.9-1.7,0.9-2.1c0-0.9-0.4-1.6-1.3-2.1c-0.9-0.5-1.6-0.7-2.2-0.7c-1.3,0-2.6,0.4-3.7,1.2
	c-1.1,0.8-2.1,1.9-2.8,3.2c-0.7,1.3-1.1,2.7-1.1,4.2c0,0.7,0.1,1.4,0.4,2.2C204.2,36.4,205,36.8,206.1,36.8z"/>
</svg>
