<svg xmlns="http://www.w3.org/2000/svg" width="21" height="18" fill="none" viewBox="0 0 21 18">
  <path fill="#023E8A" d="M9.527 3.432C6.23 5 4.554 8.027 4.554 9.702c.216-.162.703-.27 1.19-.27 2.215 0 3.783 1.73 3.783 3.946 0 2.108-1.568 4-4.27 4C2.554 17.378.5 14.838.5 11.54.5 6.19 4.014 2.405 7.96.623l1.567 2.81Zm10.973 0C17.257 5 15.581 8.027 15.581 9.702c.216-.162.649-.27 1.135-.27 2.27 0 3.784 1.73 3.784 3.946 0 2.108-1.568 4-4.216 4-2.703 0-4.757-2.54-4.757-5.838 0-5.35 3.514-9.135 7.46-10.918l1.513 2.81Z"/>
</svg>
