<svg xmlns="http://www.w3.org/2000/svg" width="231" height="92" fill="none" viewBox="0 0 231 92">
  <path fill="#fff" d="M186.635 92c-1.251 0-2.245-.432-2.983-1.296-.705-.864-1.058-1.903-1.058-3.12 0-1.279.305-2.783.914-4.51.642-1.696 1.507-3.52 2.598-5.471 2.212-3.936 5.291-8.191 9.235-12.766l5.965-7.583c-2.469 2.272-4.81 3.887-7.023 4.847-2.213.928-4.057 1.392-5.532 1.392-2.565 0-4.698-1.12-6.397-3.36-1.668-2.24-2.502-5.055-2.502-8.446 0-3.52.674-6.703 2.021-9.55 1.379-2.848 3.142-5.28 5.291-7.295 2.116-1.984 4.457-3.52 7.023-4.607 2.597-1.088 5.131-1.632 7.6-1.632 1.411 0 2.645.176 3.704.528 1.058.352 1.956.736 2.693 1.152.417.256.802.528 1.155.816.385.256.737.543 1.058.863a8.493 8.493 0 0 1 1.443-.815 9.04 9.04 0 0 1 1.491-.576 4.899 4.899 0 0 1 1.636-.288c1.411 0 2.501.288 3.271.864.769.576 1.154 1.263 1.154 2.063 0 .416-.112.832-.337 1.248L207.8 55.718l.913-.816c3.784-2.207 6.895-3.935 9.332-5.183 2.437-1.28 4.377-2.223 5.821-2.831 1.122-.48 2.052-.816 2.789-1.008.738-.224 1.235-.336 1.492-.336.737 0 1.298.288 1.683.864.417.544.625 1.232.625 2.064 0 .927-.272 1.871-.817 2.831-.513.96-1.315 1.648-2.405 2.064-1.892.96-4.169 2.031-6.831 3.215a109.272 109.272 0 0 0-8.273 4.08 48.548 48.548 0 0 0-8.13 5.518l-9.331 16.846c-1.475 3.519-2.79 5.919-3.945 7.198-1.058 1.184-2.421 1.776-4.088 1.776Zm5.676-36.57c.994 0 2.245-.608 3.752-1.823 1.507-1.248 2.95-2.704 4.329-4.368 1.411-1.663 2.597-3.247 3.559-4.75.962-1.505 1.443-2.576 1.443-3.216 0-1.408-.673-2.464-2.02-3.168-1.315-.703-2.453-1.055-3.415-1.055-2.02 0-3.928.64-5.724 1.92-1.764 1.247-3.207 2.895-4.329 4.942a13.31 13.31 0 0 0-1.636 6.431c0 1.088.225 2.208.674 3.36.449 1.151 1.571 1.727 3.367 1.727Z"/>
  <path fill="#fff" d="M133.049 64.693c-1.122 0-2.004-.352-2.645-1.056-.642-.704-.962-1.568-.962-2.592 0-.831.481-2.383 1.443-4.655a137.672 137.672 0 0 1 3.367-7.39 526.096 526.096 0 0 1 4.329-8.879 278.542 278.542 0 0 0 2.79-5.759c.641-1.376 1.443-2.4 2.405-3.071.962-.672 1.908-1.008 2.838-1.008.77 0 1.459.288 2.068.864.61.544.914 1.36.914 2.447 0 .416-.048.864-.144 1.344a6.7 6.7 0 0 1-.529 1.536c.994-1.248 2.469-2.464 4.425-3.648a32.2 32.2 0 0 1 6.35-3.023c2.277-.8 4.377-1.2 6.301-1.2 1.7 0 3.111.416 4.233 1.248 1.154.8 1.732 2.175 1.732 4.127 0 1.664-.369 3.471-1.107 5.423a40.136 40.136 0 0 1-2.645 5.567 91.122 91.122 0 0 1-3.079 4.991c-.93 1.408-1.651 2.576-2.164 3.504a2.73 2.73 0 0 0-.626 1.775c0 .64.337.96 1.011.96.224 0 .481-.016.769-.048.289-.064.641-.24 1.058-.528a47.017 47.017 0 0 0 7.168-3.407 66.868 66.868 0 0 0 6.589-4.271c2.021-1.472 3.64-2.768 4.859-3.888.513-.416 1.01-.624 1.491-.624 1.154 0 1.732.736 1.732 2.208 0 .992-.321 2.096-.962 3.312-.61 1.215-1.588 2.351-2.935 3.407a1297.304 1297.304 0 0 1-6.59 4.655 53.45 53.45 0 0 1-6.445 3.84c-2.277 1.151-4.987 2.175-8.129 3.07-1.636.513-3.031.769-4.185.769-3.271 0-4.907-1.792-4.907-5.375v-.624c.032-.224.064-.464.097-.72.096-1.44.609-3.103 1.539-4.991.93-1.92 1.94-3.808 3.03-5.663a138.382 138.382 0 0 0 2.934-5.04c.866-1.567 1.299-2.735 1.299-3.503 0-1.151-.545-1.727-1.635-1.727-2.021 0-3.961.592-5.821 1.775-1.827 1.184-3.559 2.688-5.195 4.511A53.873 53.873 0 0 0 144.69 49a193.283 193.283 0 0 0-3.56 5.328c-.737 1.215-1.459 2.64-2.164 4.27-.674 1.633-1.475 3.056-2.405 4.272-.898 1.216-2.069 1.824-3.512 1.824Z"/>
  <path fill="#fff" d="M127.71 25.388c-1.988 0-3.383-.304-4.185-.912-.801-.64-1.25-1.472-1.347-2.496 0-1.504.546-2.975 1.636-4.415 1.122-1.472 2.774-2.208 4.954-2.208 1.86 0 3.159.368 3.897 1.104.737.704 1.106 1.6 1.106 2.688 0 1.215-.481 2.56-1.443 4.031-.93 1.472-2.469 2.208-4.618 2.208Zm-11.785 39.305c-2.597 0-4.65-.656-6.157-1.968-1.475-1.344-2.212-3.423-2.212-6.239 0-1.951.352-3.887 1.058-5.807a53.857 53.857 0 0 1 2.405-5.47c.898-1.729 1.603-3.232 2.116-4.512a46.08 46.08 0 0 1 .818-1.92c.417-.864.85-1.743 1.299-2.64l1.635-3.359c.545-.895 1.171-1.535 1.876-1.92.706-.383 1.427-.575 2.165-.575 1.218 0 2.261.4 3.126 1.2.898.767 1.347 1.76 1.347 2.975-.032.288-.08.576-.144.864a2.281 2.281 0 0 1-.289.864 54.896 54.896 0 0 0-1.827 3.6 318.482 318.482 0 0 1-3.271 6.718 41.205 41.205 0 0 0-1.78 4.08c-.513 1.343-.77 2.543-.77 3.599 0 .863.209 1.44.626 1.727.448.256 1.074.384 1.875.384 1.283 0 2.694-.4 4.233-1.2a23.609 23.609 0 0 0 4.474-2.975 57.51 57.51 0 0 0 4.089-3.6c1.25-1.247 2.18-2.255 2.789-3.023.61-.608 1.251-.912 1.925-.912.577 0 1.042.256 1.394.768.385.512.578 1.168.578 1.968 0 .736-.193 1.52-.578 2.351-.352.832-.946 1.616-1.779 2.352a100.57 100.57 0 0 1-6.638 6.143c-2.309 1.92-4.682 3.487-7.119 4.703-2.405 1.216-4.827 1.824-7.264 1.824Z"/>
  <path fill="#fff" d="M79.175 64.693c-2.244 0-4.216-.8-5.916-2.4-1.7-1.632-2.55-4-2.55-7.103 0-2.527.353-5.279 1.059-8.254a99.472 99.472 0 0 1 2.357-8.447c.866-2.655 1.54-4.703 2.02-6.143.641-1.343 1.443-2.303 2.405-2.88.994-.607 1.956-.911 2.886-.911.834 0 1.652.272 2.453.816.802.544 1.203 1.232 1.203 2.064 0 .384-.064.687-.192.911a143.754 143.754 0 0 1-2.31 6.815 111.152 111.152 0 0 0-2.308 7.247c-.674 2.4-1.01 4.575-1.01 6.527 0 .48.112 1.136.336 1.967.225.8.53 1.2.914 1.2.834 0 1.764-.464 2.79-1.391 1.026-.928 2.149-2.208 3.367-3.84 1.54-1.6 2.983-3.647 4.33-6.143a345.709 345.709 0 0 0 3.848-7.247c1.154-2.271 2.293-4.207 3.415-5.807 1.122-1.631 2.245-2.447 3.367-2.447 1.315 0 2.245.432 2.79 1.296.545.832.818 1.84.818 3.023 0 1.792-.417 3.504-1.251 5.135-.834 1.632-1.892 3.344-3.175 5.135a98.267 98.267 0 0 0-3.896 6.095c.545.672 1.347 1.008 2.405 1.008 2.405 0 4.842-.56 7.312-1.68a36.377 36.377 0 0 0 7.071-4.367c.481-.288.93-.432 1.346-.432.578 0 1.043.256 1.395.768.385.512.578 1.168.578 1.968 0 .864-.257 1.807-.77 2.831-.513.992-1.363 1.904-2.549 2.736-2.406 1.823-4.811 3.263-7.216 4.32-2.405 1.023-5.066 1.535-7.985 1.535a7.58 7.58 0 0 1-2.79-.528c-.897-.352-2.068-.976-3.51-1.872-2.117 2.784-4.25 4.895-6.398 6.335-2.117 1.44-4.33 2.16-6.638 2.16Z"/>
  <path fill="#fff" d="M66.14 25.388c-1.988 0-3.383-.304-4.185-.912-.802-.64-1.25-1.472-1.347-2.496 0-1.504.545-2.975 1.636-4.415 1.122-1.472 2.773-2.208 4.954-2.208 1.86 0 3.159.368 3.896 1.104.738.704 1.107 1.6 1.107 2.688 0 1.215-.481 2.56-1.443 4.031-.93 1.472-2.47 2.208-4.618 2.208ZM54.355 64.693c-2.598 0-4.65-.656-6.157-1.968-1.475-1.344-2.213-3.423-2.213-6.239 0-1.951.353-3.887 1.059-5.807a53.991 53.991 0 0 1 2.405-5.47c.898-1.729 1.603-3.232 2.116-4.512.16-.416.433-1.056.818-1.92.417-.864.85-1.743 1.298-2.64l1.636-3.359c.545-.895 1.17-1.535 1.876-1.92.705-.383 1.427-.575 2.165-.575 1.218 0 2.26.4 3.126 1.2.898.767 1.347 1.76 1.347 2.975-.032.288-.08.576-.144.864a2.294 2.294 0 0 1-.289.864 54.735 54.735 0 0 0-1.828 3.6 297.406 297.406 0 0 1-1.587 3.31c-.45.928-1.01 2.064-1.684 3.408a41.368 41.368 0 0 0-1.78 4.08c-.513 1.343-.77 2.543-.77 3.599 0 .863.21 1.44.626 1.727.45.256 1.075.384 1.876.384 1.283 0 2.694-.4 4.233-1.2a23.624 23.624 0 0 0 4.474-2.975 57.391 57.391 0 0 0 4.088-3.6c1.25-1.247 2.18-2.255 2.79-3.023.61-.608 1.25-.912 1.924-.912.577 0 1.042.256 1.395.768.385.512.577 1.168.577 1.968 0 .736-.192 1.52-.577 2.351-.353.832-.946 1.616-1.78 2.352a100.495 100.495 0 0 1-6.638 6.143c-2.308 1.92-4.681 3.487-7.119 4.703-2.405 1.216-4.826 1.824-7.263 1.824Z"/>
  <path fill="#fff" d="M8.13 64.693c-2.342 0-4.282-.656-5.821-1.968C.769 61.381 0 59.158 0 56.055c0-3.936.882-7.615 2.646-11.039 1.763-3.423 3.992-6.35 6.686-8.782 2.661-2.432 5.467-4.304 8.418-5.615 2.982-1.344 5.643-2.016 7.984-2.016 1.892 0 3.464.304 4.714.912.706.384 1.3.816 1.78 1.296l.385-.816.866-2.016.529-1.2c.064-.256.48-1.28 1.25-3.071.77-1.792 1.796-4.207 3.08-7.247a341.89 341.89 0 0 0 2.933-7.15c.77-1.984 1.17-3.04 1.203-3.168a11.205 11.205 0 0 1 2.26-4.271C45.794.624 47.22 0 49.017 0c1.218 0 2.228.272 3.03.816.802.512 1.203 1.52 1.203 3.023 0 1.152-.257 2.384-.77 3.696a284.77 284.77 0 0 0-1.347 3.503A663.174 663.174 0 0 0 46.13 21.26a667.709 667.709 0 0 0-5.292 11.518 853.71 853.71 0 0 0-5.002 11.374 627.825 627.825 0 0 0-4.089 9.599c-.032.032-.048.112-.048.24s-.016.208-.048.24c0 .575.144 1.183.433 1.823.288.608.753.912 1.395.912.192 0 .385-.032.577-.096 2.373-.704 4.81-1.936 7.312-3.695a60.468 60.468 0 0 0 6.926-5.663c2.149-2.048 3.864-3.84 5.147-5.375.449-.544.946-.816 1.491-.816.481 0 .898.224 1.25.672.386.448.578 1.055.578 1.823 0 .608-.176 1.328-.53 2.16-.32.832-.865 1.728-1.634 2.688a119.742 119.742 0 0 1-7.793 7.822c-2.694 2.432-5.387 4.415-8.081 5.951-2.694 1.504-5.323 2.256-7.889 2.256-2.34 0-4.185-.656-5.531-1.968-1.347-1.344-2.02-3.343-2.02-5.999v-.528c0-.224.015-.384.047-.48-1.475 2.656-3.688 4.815-6.638 6.48-2.918 1.663-5.772 2.495-8.562 2.495Zm3.559-8.495c1.956 0 3.816-.592 5.58-1.776 1.763-1.183 3.383-2.703 4.858-4.559a39.61 39.61 0 0 0 3.848-5.807c1.122-2.015 2.036-3.855 2.742-5.519l.673-1.487.914-2.064c-1.892.032-3.912.448-6.06 1.248-3.689 1.247-6.911 3.455-9.67 6.622-2.725 3.136-4.232 6.943-4.52 11.423 0 1.28.544 1.92 1.635 1.92Z"/>
</svg>
