<svg width="231" height="61" viewBox="0 0 231 61" fill="none" xmlns="http://www.w3.org/2000/svg">
<path d="M4.9375 60.5625C4.125 60.5625 3.47917 60.2812 3 59.7188C2.54167 59.1562 2.3125 58.4792 2.3125 57.6875C2.3125 56.8542 2.51042 55.875 2.90625 54.75C3.32292 53.6458 3.88542 52.4583 4.59375 51.1875C6.03125 48.625 8.03125 45.8542 10.5938 42.875L14.4688 37.9375C12.8646 39.4167 11.3438 40.4688 9.90625 41.0938C8.46875 41.6979 7.27083 42 6.3125 42C4.64583 42 3.26042 41.2708 2.15625 39.8125C1.07292 38.3542 0.53125 36.5208 0.53125 34.3125C0.53125 32.0208 0.96875 29.9479 1.84375 28.0938C2.73958 26.2396 3.88542 24.6562 5.28125 23.3438C6.65625 22.0521 8.17708 21.0521 9.84375 20.3438C11.5312 19.6354 13.1771 19.2812 14.7812 19.2812C15.6979 19.2812 16.5 19.3958 17.1875 19.625C17.875 19.8542 18.4583 20.1042 18.9375 20.375C19.2083 20.5417 19.4583 20.7188 19.6875 20.9062C19.9375 21.0729 20.1667 21.2604 20.375 21.4688C20.7083 21.2396 21.0208 21.0625 21.3125 20.9375C21.6042 20.7917 21.9271 20.6667 22.2812 20.5625C22.6354 20.4375 22.9896 20.375 23.3438 20.375C24.2604 20.375 24.9688 20.5625 25.4688 20.9375C25.9688 21.3125 26.2188 21.7604 26.2188 22.2812C26.2188 22.5521 26.1458 22.8229 26 23.0938L18.6875 36.9375L19.2812 36.4062C21.7396 34.9688 23.7604 33.8438 25.3438 33.0312C26.9271 32.1979 28.1875 31.5833 29.125 31.1875C29.8542 30.875 30.4583 30.6562 30.9375 30.5312C31.4167 30.3854 31.7396 30.3125 31.9062 30.3125C32.3854 30.3125 32.75 30.5 33 30.875C33.2708 31.2292 33.4062 31.6771 33.4062 32.2188C33.4062 32.8229 33.2292 33.4375 32.875 34.0625C32.5417 34.6875 32.0208 35.1354 31.3125 35.4062C30.0833 36.0312 28.6042 36.7292 26.875 37.5C25.1667 38.25 23.375 39.1354 21.5 40.1562C19.6458 41.1562 17.8854 42.3542 16.2188 43.75L10.1562 54.7188C9.19792 57.0104 8.34375 58.5729 7.59375 59.4062C6.90625 60.1771 6.02083 60.5625 4.9375 60.5625ZM8.625 36.75C9.27083 36.75 10.0833 36.3542 11.0625 35.5625C12.0417 34.75 12.9792 33.8021 13.875 32.7188C14.7917 31.6354 15.5625 30.6042 16.1875 29.625C16.8125 28.6458 17.125 27.9479 17.125 27.5312C17.125 26.6146 16.6875 25.9271 15.8125 25.4688C14.9583 25.0104 14.2188 24.7812 13.5938 24.7812C12.2812 24.7812 11.0417 25.1979 9.875 26.0312C8.72917 26.8438 7.79167 27.9167 7.0625 29.25C6.35417 30.5625 6 31.9583 6 33.4375C6 34.1458 6.14583 34.875 6.4375 35.625C6.72917 36.375 7.45833 36.75 8.625 36.75ZM34.3438 42.7812C33.5104 42.7812 32.5625 42.5521 31.5 42.0938C30.4583 41.6562 29.5521 40.9479 28.7812 39.9688C28.0104 38.9896 27.625 37.6979 27.625 36.0938C27.625 34.8021 27.9271 33.2188 28.5312 31.3438C29.1562 29.4688 30.1042 27.6146 31.375 25.7812C32.6667 23.9271 34.3229 22.3854 36.3438 21.1562C38.3646 19.9062 40.7083 19.2812 43.375 19.2812C44.4375 19.2812 45.5625 19.4792 46.75 19.875C47.9583 20.2708 48.9896 20.9375 49.8438 21.875C50.6979 22.7917 51.125 24.0625 51.125 25.6875C51.125 27.0208 50.7917 28.5729 50.125 30.3438C50.5 30.8021 51.0312 31.0312 51.7188 31.0312C52.3646 31.0312 53.1146 30.7708 53.9688 30.25C54.8229 29.7292 55.6667 29.0938 56.5 28.3438C57.3542 27.5938 58.125 26.8438 58.8125 26.0938C59.5208 25.3438 60.0729 24.7396 60.4688 24.2812C60.6146 24.1354 60.7917 24.0625 61 24.0625C61.4583 24.0625 61.7917 24.3542 62 24.9375C62.2083 25.5208 62.1667 26.2604 61.875 27.1562C61.5833 28.0312 60.9062 28.9375 59.8438 29.875C59.2188 30.5417 58.4479 31.3646 57.5312 32.3438C56.6354 33.3021 55.6562 34.1562 54.5938 34.9062C53.5521 35.6354 52.4896 36 51.4062 36C50.3021 36 49.2604 35.6458 48.2812 34.9375C46.7396 37.3542 44.7812 39.2708 42.4062 40.6875C40.0312 42.0833 37.3438 42.7812 34.3438 42.7812ZM37.0625 37.3125C38.375 37.3125 39.6042 36.875 40.75 36C41.8958 35.125 42.8229 34.0208 43.5312 32.6875C44.2396 31.3542 44.5938 29.9896 44.5938 28.5938C44.5938 28.0521 44.5312 27.4896 44.4062 26.9062C44.3021 26.3021 44.0521 25.8021 43.6562 25.4062C43.2604 24.9896 42.625 24.7812 41.75 24.7812C40.4583 24.7812 39.2396 25.1979 38.0938 26.0312C36.9479 26.8438 36.0104 27.9062 35.2812 29.2188C34.5729 30.5104 34.2188 31.8646 34.2188 33.2812C34.2188 33.8021 34.2812 34.3854 34.4062 35.0312C34.5312 35.6562 34.7917 36.1979 35.1875 36.6562C35.6042 37.0938 36.2292 37.3125 37.0625 37.3125ZM60.8438 42.7812C60.0104 42.7812 59.0625 42.5521 58 42.0938C56.9583 41.6562 56.0521 40.9479 55.2812 39.9688C54.5104 38.9896 54.125 37.6979 54.125 36.0938C54.125 34.8021 54.4271 33.2188 55.0312 31.3438C55.6562 29.4688 56.6042 27.6146 57.875 25.7812C59.1667 23.9271 60.8229 22.3854 62.8438 21.1562C64.8646 19.9062 67.2083 19.2812 69.875 19.2812C70.9375 19.2812 72.0625 19.4792 73.25 19.875C74.4583 20.2708 75.4896 20.9375 76.3438 21.875C77.1979 22.7917 77.625 24.0625 77.625 25.6875C77.625 27.0208 77.2917 28.5729 76.625 30.3438C77 30.8021 77.5312 31.0312 78.2188 31.0312C78.8646 31.0312 79.6146 30.7708 80.4688 30.25C81.3229 29.7292 82.1667 29.0938 83 28.3438C83.8542 27.5938 84.625 26.8438 85.3125 26.0938C86.0208 25.3438 86.5729 24.7396 86.9688 24.2812C87.1146 24.1354 87.2917 24.0625 87.5 24.0625C87.9583 24.0625 88.2917 24.3542 88.5 24.9375C88.7083 25.5208 88.6667 26.2604 88.375 27.1562C88.0833 28.0312 87.4062 28.9375 86.3438 29.875C85.7188 30.5417 84.9479 31.3646 84.0312 32.3438C83.1354 33.3021 82.1562 34.1562 81.0938 34.9062C80.0521 35.6354 78.9896 36 77.9062 36C76.8021 36 75.7604 35.6458 74.7812 34.9375C73.2396 37.3542 71.2812 39.2708 68.9062 40.6875C66.5312 42.0833 63.8438 42.7812 60.8438 42.7812ZM63.5625 37.3125C64.875 37.3125 66.1042 36.875 67.25 36C68.3958 35.125 69.3229 34.0208 70.0312 32.6875C70.7396 31.3542 71.0938 29.9896 71.0938 28.5938C71.0938 28.0521 71.0312 27.4896 70.9062 26.9062C70.8021 26.3021 70.5521 25.8021 70.1562 25.4062C69.7604 24.9896 69.125 24.7812 68.25 24.7812C66.9583 24.7812 65.7396 25.1979 64.5938 26.0312C63.4479 26.8438 62.5104 27.9062 61.7812 29.2188C61.0729 30.5104 60.7188 31.8646 60.7188 33.2812C60.7188 33.8021 60.7812 34.3854 60.9062 35.0312C61.0312 35.6562 61.2917 36.1979 61.6875 36.6562C62.1042 37.0938 62.7292 37.3125 63.5625 37.3125ZM86.4688 42.7812C84.9479 42.7812 83.6875 42.3542 82.6875 41.5C81.6875 40.625 81.1875 39.1771 81.1875 37.1562C81.1875 34.5938 81.7604 32.1979 82.9062 29.9688C84.0521 27.7396 85.5 25.8333 87.25 24.25C88.9792 22.6667 90.8021 21.4479 92.7188 20.5938C94.6562 19.7188 96.3854 19.2812 97.9062 19.2812C99.1354 19.2812 100.156 19.4792 100.969 19.875C101.427 20.125 101.812 20.4062 102.125 20.7188L102.375 20.1875L102.938 18.875L103.281 18.0938C103.323 17.9271 103.594 17.2604 104.094 16.0938C104.594 14.9271 105.26 13.3542 106.094 11.375C106.865 9.54167 107.5 7.98958 108 6.71875C108.5 5.42708 108.76 4.73958 108.781 4.65625C109.073 3.61458 109.562 2.6875 110.25 1.875C110.938 1.0625 111.865 0.65625 113.031 0.65625C113.823 0.65625 114.479 0.833333 115 1.1875C115.521 1.52083 115.781 2.17708 115.781 3.15625C115.781 3.90625 115.615 4.70833 115.281 5.5625C114.948 6.41667 114.656 7.17708 114.406 7.84375C113.406 9.84375 112.323 12.0625 111.156 14.5C110.01 16.9375 108.865 19.4375 107.719 22C106.573 24.5625 105.49 27.0312 104.469 29.4062C103.448 31.7604 102.562 33.8438 101.812 35.6562C101.792 35.6771 101.781 35.7292 101.781 35.8125C101.781 35.8958 101.771 35.9479 101.75 35.9688C101.75 36.3438 101.844 36.7396 102.031 37.1562C102.219 37.5521 102.521 37.75 102.938 37.75C103.062 37.75 103.188 37.7292 103.312 37.6875C104.854 37.2292 106.438 36.4271 108.062 35.2812C109.688 34.1354 111.188 32.9062 112.562 31.5938C113.958 30.2604 115.073 29.0938 115.906 28.0938C116.198 27.7396 116.521 27.5625 116.875 27.5625C117.188 27.5625 117.458 27.7083 117.688 28C117.938 28.2917 118.062 28.6875 118.062 29.1875C118.062 29.5833 117.948 30.0521 117.719 30.5938C117.51 31.1354 117.156 31.7188 116.656 32.3438C115.031 34.1354 113.344 35.8333 111.594 37.4375C109.844 39.0208 108.094 40.3125 106.344 41.3125C104.594 42.2917 102.885 42.7812 101.219 42.7812C99.6979 42.7812 98.5 42.3542 97.625 41.5C96.75 40.625 96.3125 39.3229 96.3125 37.5938V37.25C96.3125 37.1042 96.3229 37 96.3438 36.9375C95.3854 38.6667 93.9479 40.0729 92.0312 41.1562C90.1354 42.2396 88.2812 42.7812 86.4688 42.7812ZM88.7812 37.25C90.0521 37.25 91.2604 36.8646 92.4062 36.0938C93.5521 35.3229 94.6042 34.3333 95.5625 33.125C96.5208 31.9167 97.3542 30.6562 98.0625 29.3438C98.7917 28.0312 99.3854 26.8333 99.8438 25.75L100.281 24.7812L100.875 23.4375C99.6458 23.4583 98.3333 23.7292 96.9375 24.25C94.5417 25.0625 92.4479 26.5 90.6562 28.5625C88.8854 30.6042 87.9062 33.0833 87.7188 36C87.7188 36.8333 88.0729 37.25 88.7812 37.25ZM124.156 17.1875C122.865 17.1875 121.958 16.9896 121.438 16.5938C120.917 16.1771 120.625 15.6354 120.562 14.9688C120.562 13.9896 120.917 13.0312 121.625 12.0938C122.354 11.1354 123.427 10.6562 124.844 10.6562C126.052 10.6562 126.896 10.8958 127.375 11.375C127.854 11.8333 128.094 12.4167 128.094 13.125C128.094 13.9167 127.781 14.7917 127.156 15.75C126.552 16.7083 125.552 17.1875 124.156 17.1875ZM116.5 42.7812C114.812 42.7812 113.479 42.3542 112.5 41.5C111.542 40.625 111.062 39.2708 111.062 37.4375C111.062 36.1667 111.292 34.9062 111.75 33.6562C112.229 32.3854 112.75 31.1979 113.312 30.0938C113.896 28.9688 114.354 27.9896 114.688 27.1562C114.792 26.8854 114.969 26.4688 115.219 25.9062C115.49 25.3438 115.771 24.7708 116.062 24.1875L117.125 22C117.479 21.4167 117.885 21 118.344 20.75C118.802 20.5 119.271 20.375 119.75 20.375C120.542 20.375 121.219 20.6354 121.781 21.1562C122.365 21.6562 122.656 22.3021 122.656 23.0938C122.635 23.2812 122.604 23.4688 122.562 23.6562C122.542 23.8438 122.479 24.0312 122.375 24.2188C121.917 25.0521 121.521 25.8333 121.188 26.5625C120.854 27.2708 120.51 27.9896 120.156 28.7188C119.865 29.3229 119.5 30.0625 119.062 30.9375C118.625 31.8125 118.24 32.6979 117.906 33.5938C117.573 34.4688 117.406 35.25 117.406 35.9375C117.406 36.5 117.542 36.875 117.812 37.0625C118.104 37.2292 118.51 37.3125 119.031 37.3125C119.865 37.3125 120.781 37.0521 121.781 36.5312C122.802 36.0104 123.771 35.3646 124.688 34.5938C125.646 33.8229 126.531 33.0417 127.344 32.25C128.156 31.4375 128.76 30.7812 129.156 30.2812C129.552 29.8854 129.969 29.6875 130.406 29.6875C130.781 29.6875 131.083 29.8542 131.312 30.1875C131.562 30.5208 131.688 30.9479 131.688 31.4688C131.688 31.9479 131.562 32.4583 131.312 33C131.083 33.5417 130.698 34.0521 130.156 34.5312C128.781 35.9271 127.344 37.2604 125.844 38.5312C124.344 39.7812 122.802 40.8021 121.219 41.5938C119.656 42.3854 118.083 42.7812 116.5 42.7812ZM132.625 42.7812C131.167 42.7812 129.885 42.2604 128.781 41.2188C127.677 40.1562 127.125 38.6146 127.125 36.5938C127.125 34.9479 127.354 33.1562 127.812 31.2188C128.271 29.2604 128.781 27.4271 129.344 25.7188C129.906 23.9896 130.344 22.6562 130.656 21.7188C131.073 20.8438 131.594 20.2188 132.219 19.8438C132.865 19.4479 133.49 19.25 134.094 19.25C134.635 19.25 135.167 19.4271 135.688 19.7812C136.208 20.1354 136.469 20.5833 136.469 21.125C136.469 21.375 136.427 21.5729 136.344 21.7188C135.927 23.0729 135.427 24.5521 134.844 26.1562C134.281 27.7396 133.781 29.3125 133.344 30.875C132.906 32.4375 132.688 33.8542 132.688 35.125C132.688 35.4375 132.76 35.8646 132.906 36.4062C133.052 36.9271 133.25 37.1875 133.5 37.1875C134.042 37.1875 134.646 36.8854 135.312 36.2812C135.979 35.6771 136.708 34.8438 137.5 33.7812C138.5 32.7396 139.438 31.4062 140.312 29.7812C141.208 28.1354 142.042 26.5625 142.812 25.0625C143.562 23.5833 144.302 22.3229 145.031 21.2812C145.76 20.2188 146.49 19.6875 147.219 19.6875C148.073 19.6875 148.677 19.9688 149.031 20.5312C149.385 21.0729 149.562 21.7292 149.562 22.5C149.562 23.6667 149.292 24.7812 148.75 25.8438C148.208 26.9062 147.521 28.0208 146.688 29.1875C145.875 30.3542 145.031 31.6771 144.156 33.1562C144.51 33.5938 145.031 33.8125 145.719 33.8125C147.281 33.8125 148.865 33.4479 150.469 32.7188C152.073 31.9688 153.604 31.0208 155.062 29.875C155.375 29.6875 155.667 29.5938 155.938 29.5938C156.312 29.5938 156.615 29.7604 156.844 30.0938C157.094 30.4271 157.219 30.8542 157.219 31.375C157.219 31.9375 157.052 32.5521 156.719 33.2188C156.385 33.8646 155.833 34.4583 155.062 35C153.5 36.1875 151.938 37.125 150.375 37.8125C148.812 38.4792 147.083 38.8125 145.188 38.8125C144.562 38.8125 143.958 38.6979 143.375 38.4688C142.792 38.2396 142.031 37.8333 141.094 37.25C139.719 39.0625 138.333 40.4375 136.938 41.375C135.562 42.3125 134.125 42.7812 132.625 42.7812ZM164.156 17.1875C162.865 17.1875 161.958 16.9896 161.438 16.5938C160.917 16.1771 160.625 15.6354 160.562 14.9688C160.562 13.9896 160.917 13.0312 161.625 12.0938C162.354 11.1354 163.427 10.6562 164.844 10.6562C166.052 10.6562 166.896 10.8958 167.375 11.375C167.854 11.8333 168.094 12.4167 168.094 13.125C168.094 13.9167 167.781 14.7917 167.156 15.75C166.552 16.7083 165.552 17.1875 164.156 17.1875ZM156.5 42.7812C154.812 42.7812 153.479 42.3542 152.5 41.5C151.542 40.625 151.062 39.2708 151.062 37.4375C151.062 36.1667 151.292 34.9062 151.75 33.6562C152.229 32.3854 152.75 31.1979 153.312 30.0938C153.896 28.9688 154.354 27.9896 154.688 27.1562C154.792 26.8854 154.969 26.4688 155.219 25.9062C155.49 25.3438 155.771 24.7708 156.062 24.1875L157.125 22C157.479 21.4167 157.885 21 158.344 20.75C158.802 20.5 159.271 20.375 159.75 20.375C160.542 20.375 161.219 20.6354 161.781 21.1562C162.365 21.6562 162.656 22.3021 162.656 23.0938C162.635 23.2812 162.604 23.4688 162.562 23.6562C162.542 23.8438 162.479 24.0312 162.375 24.2188C161.917 25.0521 161.521 25.8333 161.188 26.5625C160.854 27.2708 160.51 27.9896 160.156 28.7188C159.865 29.3229 159.5 30.0625 159.062 30.9375C158.625 31.8125 158.24 32.6979 157.906 33.5938C157.573 34.4688 157.406 35.25 157.406 35.9375C157.406 36.5 157.542 36.875 157.812 37.0625C158.104 37.2292 158.51 37.3125 159.031 37.3125C159.865 37.3125 160.781 37.0521 161.781 36.5312C162.802 36.0104 163.771 35.3646 164.688 34.5938C165.646 33.8229 166.531 33.0417 167.344 32.25C168.156 31.4375 168.76 30.7812 169.156 30.2812C169.552 29.8854 169.969 29.6875 170.406 29.6875C170.781 29.6875 171.083 29.8542 171.312 30.1875C171.562 30.5208 171.688 30.9479 171.688 31.4688C171.688 31.9479 171.562 32.4583 171.312 33C171.083 33.5417 170.698 34.0521 170.156 34.5312C168.781 35.9271 167.344 37.2604 165.844 38.5312C164.344 39.7812 162.802 40.8021 161.219 41.5938C159.656 42.3854 158.083 42.7812 156.5 42.7812ZM167.625 42.7812C166.896 42.7812 166.323 42.5521 165.906 42.0938C165.49 41.6354 165.281 41.0729 165.281 40.4062C165.281 39.8646 165.594 38.8542 166.219 37.375C166.844 35.875 167.573 34.2708 168.406 32.5625C169.469 30.3333 170.406 28.4062 171.219 26.7812C172.031 25.1354 172.635 23.8854 173.031 23.0312C173.448 22.1354 173.969 21.4688 174.594 21.0312C175.219 20.5938 175.833 20.375 176.438 20.375C176.938 20.375 177.385 20.5625 177.781 20.9375C178.177 21.2917 178.375 21.8229 178.375 22.5312C178.375 22.8021 178.344 23.0938 178.281 23.4062C178.219 23.7188 178.104 24.0521 177.938 24.4062C178.583 23.5938 179.542 22.8021 180.812 22.0312C182.083 21.2396 183.458 20.5833 184.938 20.0625C186.417 19.5417 187.781 19.2812 189.031 19.2812C190.135 19.2812 191.052 19.5521 191.781 20.0938C192.531 20.6146 192.906 21.5104 192.906 22.7812C192.906 23.8646 192.667 25.0417 192.188 26.3125C191.708 27.5625 191.135 28.7708 190.469 29.9375C189.76 31.1667 189.094 32.25 188.469 33.1875C187.865 34.1042 187.396 34.8646 187.062 35.4688C186.792 35.8021 186.656 36.1875 186.656 36.625C186.656 37.0417 186.875 37.25 187.312 37.25C187.458 37.25 187.625 37.2396 187.812 37.2188C188 37.1771 188.229 37.0625 188.5 36.875C190.062 36.2917 191.615 35.5521 193.156 34.6562C194.719 33.7604 196.146 32.8333 197.438 31.875C198.75 30.9167 199.802 30.0729 200.594 29.3438C200.927 29.0729 201.25 28.9375 201.562 28.9375C202.312 28.9375 202.688 29.4167 202.688 30.375C202.688 31.0208 202.479 31.7396 202.062 32.5312C201.667 33.3229 201.031 34.0625 200.156 34.75C198.635 35.8333 197.208 36.8438 195.875 37.7812C194.562 38.6979 193.167 39.5312 191.688 40.2812C190.208 41.0312 188.448 41.6979 186.406 42.2812C185.344 42.6146 184.438 42.7812 183.688 42.7812C181.562 42.7812 180.5 41.6146 180.5 39.2812C180.5 39.1354 180.5 39 180.5 38.875C180.521 38.7292 180.542 38.5729 180.562 38.4062C180.625 37.4688 180.958 36.3854 181.562 35.1562C182.167 33.9062 182.823 32.6771 183.531 31.4688C184.24 30.3021 184.875 29.2083 185.438 28.1875C186 27.1667 186.281 26.4062 186.281 25.9062C186.281 25.1562 185.927 24.7812 185.219 24.7812C183.906 24.7812 182.646 25.1667 181.438 25.9375C180.25 26.7083 179.125 27.6875 178.062 28.875C177.021 30.0417 176.062 31.2708 175.188 32.5625C174.312 33.8333 173.542 34.9896 172.875 36.0312C172.396 36.8229 171.927 37.75 171.469 38.8125C171.031 39.875 170.51 40.8021 169.906 41.5938C169.323 42.3854 168.562 42.7812 167.625 42.7812ZM202.438 60.5625C201.625 60.5625 200.979 60.2812 200.5 59.7188C200.042 59.1562 199.812 58.4792 199.812 57.6875C199.812 56.8542 200.01 55.875 200.406 54.75C200.823 53.6458 201.385 52.4583 202.094 51.1875C203.531 48.625 205.531 45.8542 208.094 42.875L211.969 37.9375C210.365 39.4167 208.844 40.4688 207.406 41.0938C205.969 41.6979 204.771 42 203.812 42C202.146 42 200.76 41.2708 199.656 39.8125C198.573 38.3542 198.031 36.5208 198.031 34.3125C198.031 32.0208 198.469 29.9479 199.344 28.0938C200.24 26.2396 201.385 24.6562 202.781 23.3438C204.156 22.0521 205.677 21.0521 207.344 20.3438C209.031 19.6354 210.677 19.2812 212.281 19.2812C213.198 19.2812 214 19.3958 214.688 19.625C215.375 19.8542 215.958 20.1042 216.438 20.375C216.708 20.5417 216.958 20.7188 217.188 20.9062C217.438 21.0729 217.667 21.2604 217.875 21.4688C218.208 21.2396 218.521 21.0625 218.812 20.9375C219.104 20.7917 219.427 20.6667 219.781 20.5625C220.135 20.4375 220.49 20.375 220.844 20.375C221.76 20.375 222.469 20.5625 222.969 20.9375C223.469 21.3125 223.719 21.7604 223.719 22.2812C223.719 22.5521 223.646 22.8229 223.5 23.0938L216.188 36.9375L216.781 36.4062C219.24 34.9688 221.26 33.8438 222.844 33.0312C224.427 32.1979 225.688 31.5833 226.625 31.1875C227.354 30.875 227.958 30.6562 228.438 30.5312C228.917 30.3854 229.24 30.3125 229.406 30.3125C229.885 30.3125 230.25 30.5 230.5 30.875C230.771 31.2292 230.906 31.6771 230.906 32.2188C230.906 32.8229 230.729 33.4375 230.375 34.0625C230.042 34.6875 229.521 35.1354 228.812 35.4062C227.583 36.0312 226.104 36.7292 224.375 37.5C222.667 38.25 220.875 39.1354 219 40.1562C217.146 41.1562 215.385 42.3542 213.719 43.75L207.656 54.7188C206.698 57.0104 205.844 58.5729 205.094 59.4062C204.406 60.1771 203.521 60.5625 202.438 60.5625ZM206.125 36.75C206.771 36.75 207.583 36.3542 208.562 35.5625C209.542 34.75 210.479 33.8021 211.375 32.7188C212.292 31.6354 213.062 30.6042 213.688 29.625C214.312 28.6458 214.625 27.9479 214.625 27.5312C214.625 26.6146 214.188 25.9271 213.312 25.4688C212.458 25.0104 211.719 24.7812 211.094 24.7812C209.781 24.7812 208.542 25.1979 207.375 26.0312C206.229 26.8438 205.292 27.9167 204.562 29.25C203.854 30.5625 203.5 31.9583 203.5 33.4375C203.5 34.1458 203.646 34.875 203.938 35.625C204.229 36.375 204.958 36.75 206.125 36.75Z" fill="white"/>
</svg>
