<svg width="145" height="38" viewBox="0 0 145 38" fill="none" xmlns="http://www.w3.org/2000/svg">
<path d="M2.96094 37.6016C2.45312 37.6016 2.04948 37.4258 1.75 37.0742C1.46354 36.7227 1.32031 36.2995 1.32031 35.8047C1.32031 35.2839 1.44401 34.6719 1.69141 33.9688C1.95182 33.2786 2.30339 32.5365 2.74609 31.7422C3.64453 30.1406 4.89453 28.4089 6.49609 26.5469L8.91797 23.4609C7.91536 24.3854 6.96484 25.043 6.06641 25.4336C5.16797 25.8112 4.41927 26 3.82031 26C2.77865 26 1.91276 25.5443 1.22266 24.6328C0.545573 23.7214 0.207031 22.5755 0.207031 21.1953C0.207031 19.763 0.480469 18.4674 1.02734 17.3086C1.58724 16.1497 2.30339 15.1602 3.17578 14.3398C4.03516 13.5326 4.98568 12.9076 6.02734 12.4648C7.08203 12.0221 8.11068 11.8008 9.11328 11.8008C9.6862 11.8008 10.1875 11.8724 10.6172 12.0156C11.0469 12.1589 11.4115 12.3151 11.7109 12.4844C11.8802 12.5885 12.0365 12.6992 12.1797 12.8164C12.3359 12.9206 12.4792 13.0378 12.6094 13.168C12.8177 13.0247 13.013 12.9141 13.1953 12.8359C13.3776 12.7448 13.5794 12.6667 13.8008 12.6016C14.0221 12.5234 14.2435 12.4844 14.4648 12.4844C15.0378 12.4844 15.4805 12.6016 15.793 12.8359C16.1055 13.0703 16.2617 13.3503 16.2617 13.6758C16.2617 13.8451 16.2161 14.0143 16.125 14.1836L11.5547 22.8359L11.9258 22.5039C13.4622 21.6055 14.7253 20.9023 15.7148 20.3945C16.7044 19.8737 17.4922 19.4896 18.0781 19.2422C18.5339 19.0469 18.9115 18.9102 19.2109 18.832C19.5104 18.7409 19.7122 18.6953 19.8164 18.6953C20.1159 18.6953 20.3438 18.8125 20.5 19.0469C20.6693 19.2682 20.7539 19.5482 20.7539 19.8867C20.7539 20.2643 20.6432 20.6484 20.4219 21.0391C20.2135 21.4297 19.888 21.7096 19.4453 21.8789C18.6771 22.2695 17.7526 22.7057 16.6719 23.1875C15.6042 23.6562 14.4844 24.2096 13.3125 24.8477C12.1536 25.4727 11.0534 26.2214 10.0117 27.0938L6.22266 33.9492C5.6237 35.3815 5.08984 36.3581 4.62109 36.8789C4.19141 37.3607 3.63802 37.6016 2.96094 37.6016ZM5.26562 22.7188C5.66927 22.7188 6.17708 22.4714 6.78906 21.9766C7.40104 21.4688 7.98698 20.8763 8.54688 20.1992C9.11979 19.5221 9.60156 18.8776 9.99219 18.2656C10.3828 17.6536 10.5781 17.2174 10.5781 16.957C10.5781 16.3841 10.3047 15.9544 9.75781 15.668C9.22396 15.3815 8.76172 15.2383 8.37109 15.2383C7.55078 15.2383 6.77604 15.4987 6.04688 16.0195C5.33073 16.5273 4.74479 17.1979 4.28906 18.0312C3.84635 18.8516 3.625 19.724 3.625 20.6484C3.625 21.0911 3.71615 21.5469 3.89844 22.0156C4.08073 22.4844 4.53646 22.7188 5.26562 22.7188ZM21.3398 26.4883C20.819 26.4883 20.2266 26.3451 19.5625 26.0586C18.9115 25.7852 18.3451 25.3424 17.8633 24.7305C17.3815 24.1185 17.1406 23.3112 17.1406 22.3086C17.1406 21.5013 17.3294 20.5117 17.707 19.3398C18.0977 18.168 18.6901 17.0091 19.4844 15.8633C20.2917 14.7044 21.3268 13.7409 22.5898 12.9727C23.8529 12.1914 25.3177 11.8008 26.9844 11.8008C27.6484 11.8008 28.3516 11.9245 29.0938 12.1719C29.849 12.4193 30.4935 12.8359 31.0273 13.4219C31.5612 13.9948 31.8281 14.7891 31.8281 15.8047C31.8281 16.638 31.6198 17.6081 31.2031 18.7148C31.4375 19.0013 31.7695 19.1445 32.1992 19.1445C32.6029 19.1445 33.0716 18.9818 33.6055 18.6562C34.1393 18.3307 34.6667 17.9336 35.1875 17.4648C35.7214 16.9961 36.2031 16.5273 36.6328 16.0586C37.0755 15.5898 37.4206 15.2122 37.668 14.9258C37.7591 14.8346 37.8698 14.7891 38 14.7891C38.2865 14.7891 38.4948 14.9714 38.625 15.3359C38.7552 15.7005 38.7292 16.1628 38.5469 16.7227C38.3646 17.2695 37.9414 17.8359 37.2773 18.4219C36.8867 18.8385 36.4049 19.3529 35.832 19.9648C35.2721 20.5638 34.6602 21.0977 33.9961 21.5664C33.3451 22.0221 32.681 22.25 32.0039 22.25C31.3138 22.25 30.6628 22.0286 30.0508 21.5859C29.0872 23.0964 27.8633 24.2943 26.3789 25.1797C24.8945 26.0521 23.2148 26.4883 21.3398 26.4883ZM23.0391 23.0703C23.8594 23.0703 24.6276 22.7969 25.3438 22.25C26.0599 21.7031 26.6393 21.013 27.082 20.1797C27.5247 19.3464 27.7461 18.4935 27.7461 17.6211C27.7461 17.2826 27.707 16.931 27.6289 16.5664C27.5638 16.1888 27.4076 15.8763 27.1602 15.6289C26.9128 15.3685 26.5156 15.2383 25.9688 15.2383C25.1615 15.2383 24.3997 15.4987 23.6836 16.0195C22.9674 16.5273 22.3815 17.1914 21.9258 18.0117C21.4831 18.819 21.2617 19.6654 21.2617 20.5508C21.2617 20.8763 21.3008 21.2409 21.3789 21.6445C21.457 22.0352 21.6198 22.3737 21.8672 22.6602C22.1276 22.9336 22.5182 23.0703 23.0391 23.0703ZM37.9023 26.4883C37.3815 26.4883 36.7891 26.3451 36.125 26.0586C35.474 25.7852 34.9076 25.3424 34.4258 24.7305C33.944 24.1185 33.7031 23.3112 33.7031 22.3086C33.7031 21.5013 33.8919 20.5117 34.2695 19.3398C34.6602 18.168 35.2526 17.0091 36.0469 15.8633C36.8542 14.7044 37.8893 13.7409 39.1523 12.9727C40.4154 12.1914 41.8802 11.8008 43.5469 11.8008C44.2109 11.8008 44.9141 11.9245 45.6562 12.1719C46.4115 12.4193 47.056 12.8359 47.5898 13.4219C48.1237 13.9948 48.3906 14.7891 48.3906 15.8047C48.3906 16.638 48.1823 17.6081 47.7656 18.7148C48 19.0013 48.332 19.1445 48.7617 19.1445C49.1654 19.1445 49.6341 18.9818 50.168 18.6562C50.7018 18.3307 51.2292 17.9336 51.75 17.4648C52.2839 16.9961 52.7656 16.5273 53.1953 16.0586C53.638 15.5898 53.9831 15.2122 54.2305 14.9258C54.3216 14.8346 54.4323 14.7891 54.5625 14.7891C54.849 14.7891 55.0573 14.9714 55.1875 15.3359C55.3177 15.7005 55.2917 16.1628 55.1094 16.7227C54.9271 17.2695 54.5039 17.8359 53.8398 18.4219C53.4492 18.8385 52.9674 19.3529 52.3945 19.9648C51.8346 20.5638 51.2227 21.0977 50.5586 21.5664C49.9076 22.0221 49.2435 22.25 48.5664 22.25C47.8763 22.25 47.2253 22.0286 46.6133 21.5859C45.6497 23.0964 44.4258 24.2943 42.9414 25.1797C41.457 26.0521 39.7773 26.4883 37.9023 26.4883ZM39.6016 23.0703C40.4219 23.0703 41.1901 22.7969 41.9062 22.25C42.6224 21.7031 43.2018 21.013 43.6445 20.1797C44.0872 19.3464 44.3086 18.4935 44.3086 17.6211C44.3086 17.2826 44.2695 16.931 44.1914 16.5664C44.1263 16.1888 43.9701 15.8763 43.7227 15.6289C43.4753 15.3685 43.0781 15.2383 42.5312 15.2383C41.724 15.2383 40.9622 15.4987 40.2461 16.0195C39.5299 16.5273 38.944 17.1914 38.4883 18.0117C38.0456 18.819 37.8242 19.6654 37.8242 20.5508C37.8242 20.8763 37.8633 21.2409 37.9414 21.6445C38.0195 22.0352 38.1823 22.3737 38.4297 22.6602C38.6901 22.9336 39.0807 23.0703 39.6016 23.0703Z" fill="#AAAAAA"/>
<path d="M53.918 26.4883C52.9674 26.4883 52.1797 26.2214 51.5547 25.6875C50.9297 25.1406 50.6172 24.2357 50.6172 22.9727C50.6172 21.3711 50.9753 19.8737 51.6914 18.4805C52.4076 17.0872 53.3125 15.8958 54.4062 14.9062C55.487 13.9167 56.6263 13.1549 57.8242 12.6211C59.0352 12.0742 60.1159 11.8008 61.0664 11.8008C61.8346 11.8008 62.4727 11.9245 62.9805 12.1719C63.2669 12.3281 63.5078 12.5039 63.7031 12.6992L63.8594 12.3672L64.2109 11.5469L64.4258 11.0586C64.4518 10.9544 64.6211 10.5378 64.9336 9.80859C65.2461 9.07943 65.6628 8.09635 66.1836 6.85938C66.6654 5.71354 67.0625 4.74349 67.375 3.94922C67.6875 3.14193 67.8503 2.71224 67.8633 2.66016C68.0456 2.00911 68.3516 1.42969 68.7812 0.921875C69.2109 0.414062 69.7904 0.160156 70.5195 0.160156C71.0143 0.160156 71.4245 0.270833 71.75 0.492188C72.0755 0.700521 72.2383 1.11068 72.2383 1.72266C72.2383 2.19141 72.1341 2.69271 71.9258 3.22656C71.7174 3.76042 71.5352 4.23568 71.3789 4.65234C70.7539 5.90234 70.0768 7.28906 69.3477 8.8125C68.6315 10.3359 67.9154 11.8984 67.1992 13.5C66.4831 15.1016 65.806 16.6445 65.168 18.1289C64.5299 19.6003 63.9766 20.9023 63.5078 22.0352C63.4948 22.0482 63.4883 22.0807 63.4883 22.1328C63.4883 22.1849 63.4818 22.2174 63.4688 22.2305C63.4688 22.4648 63.5273 22.7122 63.6445 22.9727C63.7617 23.2201 63.9505 23.3438 64.2109 23.3438C64.2891 23.3438 64.3672 23.3307 64.4453 23.3047C65.4089 23.0182 66.3984 22.5169 67.4141 21.8008C68.4297 21.0846 69.3672 20.3164 70.2266 19.4961C71.099 18.6628 71.7956 17.9336 72.3164 17.3086C72.4987 17.0872 72.7005 16.9766 72.9219 16.9766C73.1172 16.9766 73.2865 17.0677 73.4297 17.25C73.5859 17.4323 73.6641 17.6797 73.6641 17.9922C73.6641 18.2396 73.5924 18.5326 73.4492 18.8711C73.319 19.2096 73.0977 19.5742 72.7852 19.9648C71.7695 21.0846 70.7148 22.1458 69.6211 23.1484C68.5273 24.138 67.4336 24.9453 66.3398 25.5703C65.2461 26.1823 64.1784 26.4883 63.1367 26.4883C62.1862 26.4883 61.4375 26.2214 60.8906 25.6875C60.3438 25.1406 60.0703 24.3268 60.0703 23.2461V23.0312C60.0703 22.9401 60.0768 22.875 60.0898 22.8359C59.4909 23.9167 58.5924 24.7956 57.3945 25.4727C56.2096 26.1497 55.0508 26.4883 53.918 26.4883ZM55.3633 23.0312C56.1576 23.0312 56.9128 22.7904 57.6289 22.3086C58.3451 21.8268 59.0026 21.2083 59.6016 20.4531C60.2005 19.6979 60.7214 18.9102 61.1641 18.0898C61.6198 17.2695 61.9909 16.5208 62.2773 15.8438L62.5508 15.2383L62.9219 14.3984C62.1536 14.4115 61.3333 14.5807 60.4609 14.9062C58.9635 15.4141 57.6549 16.3125 56.5352 17.6016C55.4284 18.8776 54.8164 20.4271 54.6992 22.25C54.6992 22.7708 54.9206 23.0312 55.3633 23.0312ZM77.4727 10.4922C76.6654 10.4922 76.099 10.3685 75.7734 10.1211C75.4479 9.86068 75.2656 9.52214 75.2266 9.10547C75.2266 8.49349 75.4479 7.89453 75.8906 7.30859C76.3464 6.70964 77.0169 6.41016 77.9023 6.41016C78.6576 6.41016 79.1849 6.5599 79.4844 6.85938C79.7839 7.14583 79.9336 7.51042 79.9336 7.95312C79.9336 8.44792 79.7383 8.99479 79.3477 9.59375C78.9701 10.1927 78.3451 10.4922 77.4727 10.4922ZM72.6875 26.4883C71.6328 26.4883 70.7995 26.2214 70.1875 25.6875C69.5885 25.1406 69.2891 24.2943 69.2891 23.1484C69.2891 22.3542 69.4323 21.5664 69.7188 20.7852C70.0182 19.9909 70.3438 19.2487 70.6953 18.5586C71.0599 17.8555 71.3464 17.2435 71.5547 16.7227C71.6198 16.5534 71.7305 16.293 71.8867 15.9414C72.056 15.5898 72.2318 15.2318 72.4141 14.8672L73.0781 13.5C73.2995 13.1354 73.5534 12.875 73.8398 12.7188C74.1263 12.5625 74.4193 12.4844 74.7188 12.4844C75.2135 12.4844 75.6367 12.6471 75.9883 12.9727C76.3529 13.2852 76.5352 13.6888 76.5352 14.1836C76.5221 14.3008 76.5026 14.418 76.4766 14.5352C76.4635 14.6523 76.4245 14.7695 76.3594 14.8867C76.0729 15.4076 75.8255 15.8958 75.6172 16.3516C75.4089 16.7943 75.194 17.2435 74.9727 17.6992C74.7904 18.0768 74.5625 18.5391 74.2891 19.0859C74.0156 19.6328 73.7747 20.1862 73.5664 20.7461C73.3581 21.293 73.2539 21.7812 73.2539 22.2109C73.2539 22.5625 73.3385 22.7969 73.5078 22.9141C73.6901 23.0182 73.944 23.0703 74.2695 23.0703C74.7904 23.0703 75.3633 22.9076 75.9883 22.582C76.6263 22.2565 77.2318 21.8529 77.8047 21.3711C78.4036 20.8893 78.957 20.401 79.4648 19.9062C79.9727 19.3984 80.3503 18.9883 80.5977 18.6758C80.8451 18.4284 81.1055 18.3047 81.3789 18.3047C81.6133 18.3047 81.8021 18.4089 81.9453 18.6172C82.1016 18.8255 82.1797 19.0924 82.1797 19.418C82.1797 19.7174 82.1016 20.0365 81.9453 20.375C81.8021 20.7135 81.5612 21.0326 81.2227 21.332C80.3633 22.2044 79.4648 23.0378 78.5273 23.832C77.5898 24.6133 76.6263 25.2513 75.6367 25.7461C74.6602 26.2409 73.6771 26.4883 72.6875 26.4883ZM82.7656 26.4883C81.8542 26.4883 81.0534 26.1628 80.3633 25.5117C79.6732 24.8477 79.3281 23.8841 79.3281 22.6211C79.3281 21.5924 79.4714 20.4727 79.7578 19.2617C80.0443 18.0378 80.3633 16.8919 80.7148 15.8242C81.0664 14.7435 81.3398 13.9102 81.5352 13.3242C81.7956 12.7773 82.1211 12.3867 82.5117 12.1523C82.9154 11.9049 83.306 11.7812 83.6836 11.7812C84.0221 11.7812 84.3542 11.8919 84.6797 12.1133C85.0052 12.3346 85.168 12.6146 85.168 12.9531C85.168 13.1094 85.1419 13.2331 85.0898 13.3242C84.8294 14.1706 84.5169 15.0951 84.1523 16.0977C83.8008 17.0872 83.4883 18.0703 83.2148 19.0469C82.9414 20.0234 82.8047 20.9089 82.8047 21.7031C82.8047 21.8984 82.8503 22.1654 82.9414 22.5039C83.0326 22.8294 83.1562 22.9922 83.3125 22.9922C83.651 22.9922 84.0286 22.8034 84.4453 22.4258C84.862 22.0482 85.3177 21.5273 85.8125 20.8633C86.4375 20.2122 87.0234 19.3789 87.5703 18.3633C88.1302 17.3346 88.651 16.3516 89.1328 15.4141C89.6016 14.4896 90.0638 13.7018 90.5195 13.0508C90.9753 12.3867 91.431 12.0547 91.8867 12.0547C92.4206 12.0547 92.7982 12.2305 93.0195 12.582C93.2409 12.9206 93.3516 13.3307 93.3516 13.8125C93.3516 14.5417 93.1823 15.2383 92.8438 15.9023C92.5052 16.5664 92.0755 17.263 91.5547 17.9922C91.0469 18.7214 90.5195 19.5482 89.9727 20.4727C90.194 20.7461 90.5195 20.8828 90.9492 20.8828C91.9258 20.8828 92.9154 20.6549 93.918 20.1992C94.9206 19.7305 95.8776 19.138 96.7891 18.4219C96.9844 18.3047 97.1667 18.2461 97.3359 18.2461C97.5703 18.2461 97.7591 18.3503 97.9023 18.5586C98.0586 18.7669 98.1367 19.0339 98.1367 19.3594C98.1367 19.7109 98.0326 20.0951 97.8242 20.5117C97.6159 20.9154 97.2708 21.2865 96.7891 21.625C95.8125 22.3672 94.8359 22.9531 93.8594 23.3828C92.8828 23.7995 91.8021 24.0078 90.6172 24.0078C90.2266 24.0078 89.849 23.9362 89.4844 23.793C89.1198 23.6497 88.6445 23.3958 88.0586 23.0312C87.1992 24.1641 86.3333 25.0234 85.4609 25.6094C84.6016 26.1953 83.7031 26.4883 82.7656 26.4883ZM102.473 10.4922C101.665 10.4922 101.099 10.3685 100.773 10.1211C100.448 9.86068 100.266 9.52214 100.227 9.10547C100.227 8.49349 100.448 7.89453 100.891 7.30859C101.346 6.70964 102.017 6.41016 102.902 6.41016C103.658 6.41016 104.185 6.5599 104.484 6.85938C104.784 7.14583 104.934 7.51042 104.934 7.95312C104.934 8.44792 104.738 8.99479 104.348 9.59375C103.97 10.1927 103.345 10.4922 102.473 10.4922ZM97.6875 26.4883C96.6328 26.4883 95.7995 26.2214 95.1875 25.6875C94.5885 25.1406 94.2891 24.2943 94.2891 23.1484C94.2891 22.3542 94.4323 21.5664 94.7188 20.7852C95.0182 19.9909 95.3438 19.2487 95.6953 18.5586C96.0599 17.8555 96.3464 17.2435 96.5547 16.7227C96.6198 16.5534 96.7305 16.293 96.8867 15.9414C97.056 15.5898 97.2318 15.2318 97.4141 14.8672L98.0781 13.5C98.2995 13.1354 98.5534 12.875 98.8398 12.7188C99.1263 12.5625 99.4193 12.4844 99.7188 12.4844C100.214 12.4844 100.637 12.6471 100.988 12.9727C101.353 13.2852 101.535 13.6888 101.535 14.1836C101.522 14.3008 101.503 14.418 101.477 14.5352C101.464 14.6523 101.424 14.7695 101.359 14.8867C101.073 15.4076 100.826 15.8958 100.617 16.3516C100.409 16.7943 100.194 17.2435 99.9727 17.6992C99.7904 18.0768 99.5625 18.5391 99.2891 19.0859C99.0156 19.6328 98.7747 20.1862 98.5664 20.7461C98.3581 21.293 98.2539 21.7812 98.2539 22.2109C98.2539 22.5625 98.3385 22.7969 98.5078 22.9141C98.6901 23.0182 98.944 23.0703 99.2695 23.0703C99.7904 23.0703 100.363 22.9076 100.988 22.582C101.626 22.2565 102.232 21.8529 102.805 21.3711C103.404 20.8893 103.957 20.401 104.465 19.9062C104.973 19.3984 105.35 18.9883 105.598 18.6758C105.845 18.4284 106.105 18.3047 106.379 18.3047C106.613 18.3047 106.802 18.4089 106.945 18.6172C107.102 18.8255 107.18 19.0924 107.18 19.418C107.18 19.7174 107.102 20.0365 106.945 20.375C106.802 20.7135 106.561 21.0326 106.223 21.332C105.363 22.2044 104.465 23.0378 103.527 23.832C102.59 24.6133 101.626 25.2513 100.637 25.7461C99.6602 26.2409 98.6771 26.4883 97.6875 26.4883ZM104.641 26.4883C104.185 26.4883 103.827 26.3451 103.566 26.0586C103.306 25.7721 103.176 25.4206 103.176 25.0039C103.176 24.6654 103.371 24.0339 103.762 23.1094C104.152 22.1719 104.608 21.1693 105.129 20.1016C105.793 18.7083 106.379 17.5039 106.887 16.4883C107.395 15.4596 107.772 14.6784 108.02 14.1445C108.28 13.5846 108.605 13.168 108.996 12.8945C109.387 12.6211 109.771 12.4844 110.148 12.4844C110.461 12.4844 110.741 12.6016 110.988 12.8359C111.236 13.0573 111.359 13.3893 111.359 13.832C111.359 14.0013 111.34 14.1836 111.301 14.3789C111.262 14.5742 111.19 14.7826 111.086 15.0039C111.49 14.4961 112.089 14.0013 112.883 13.5195C113.677 13.0247 114.536 12.6146 115.461 12.2891C116.385 11.9635 117.238 11.8008 118.02 11.8008C118.71 11.8008 119.283 11.9701 119.738 12.3086C120.207 12.6341 120.441 13.194 120.441 13.9883C120.441 14.6654 120.292 15.401 119.992 16.1953C119.693 16.9766 119.335 17.7318 118.918 18.4609C118.475 19.2292 118.059 19.9062 117.668 20.4922C117.29 21.0651 116.997 21.5404 116.789 21.918C116.62 22.1263 116.535 22.3672 116.535 22.6406C116.535 22.901 116.672 23.0312 116.945 23.0312C117.036 23.0312 117.141 23.0247 117.258 23.0117C117.375 22.9857 117.518 22.9141 117.688 22.7969C118.664 22.4323 119.634 21.9701 120.598 21.4102C121.574 20.8503 122.466 20.2708 123.273 19.6719C124.094 19.0729 124.751 18.5456 125.246 18.0898C125.454 17.9206 125.656 17.8359 125.852 17.8359C126.32 17.8359 126.555 18.1354 126.555 18.7344C126.555 19.138 126.424 19.5872 126.164 20.082C125.917 20.5768 125.52 21.0391 124.973 21.4688C124.022 22.1458 123.13 22.7773 122.297 23.3633C121.477 23.9362 120.604 24.457 119.68 24.9258C118.755 25.3945 117.655 25.8112 116.379 26.1758C115.715 26.3841 115.148 26.4883 114.68 26.4883C113.352 26.4883 112.688 25.7591 112.688 24.3008C112.688 24.2096 112.688 24.125 112.688 24.0469C112.701 23.9557 112.714 23.8581 112.727 23.7539C112.766 23.168 112.974 22.4909 113.352 21.7227C113.729 20.9414 114.139 20.1732 114.582 19.418C115.025 18.6888 115.422 18.0052 115.773 17.3672C116.125 16.7292 116.301 16.2539 116.301 15.9414C116.301 15.4727 116.079 15.2383 115.637 15.2383C114.816 15.2383 114.029 15.4792 113.273 15.9609C112.531 16.4427 111.828 17.0547 111.164 17.7969C110.513 18.526 109.914 19.2943 109.367 20.1016C108.82 20.8958 108.339 21.6185 107.922 22.2695C107.622 22.7643 107.329 23.3438 107.043 24.0078C106.77 24.6719 106.444 25.2513 106.066 25.7461C105.702 26.2409 105.227 26.4883 104.641 26.4883ZM126.398 37.6016C125.891 37.6016 125.487 37.4258 125.188 37.0742C124.901 36.7227 124.758 36.2995 124.758 35.8047C124.758 35.2839 124.882 34.6719 125.129 33.9688C125.389 33.2786 125.741 32.5365 126.184 31.7422C127.082 30.1406 128.332 28.4089 129.934 26.5469L132.355 23.4609C131.353 24.3854 130.402 25.043 129.504 25.4336C128.605 25.8112 127.857 26 127.258 26C126.216 26 125.35 25.5443 124.66 24.6328C123.983 23.7214 123.645 22.5755 123.645 21.1953C123.645 19.763 123.918 18.4674 124.465 17.3086C125.025 16.1497 125.741 15.1602 126.613 14.3398C127.473 13.5326 128.423 12.9076 129.465 12.4648C130.52 12.0221 131.548 11.8008 132.551 11.8008C133.124 11.8008 133.625 11.8724 134.055 12.0156C134.484 12.1589 134.849 12.3151 135.148 12.4844C135.318 12.5885 135.474 12.6992 135.617 12.8164C135.773 12.9206 135.917 13.0378 136.047 13.168C136.255 13.0247 136.451 12.9141 136.633 12.8359C136.815 12.7448 137.017 12.6667 137.238 12.6016C137.46 12.5234 137.681 12.4844 137.902 12.4844C138.475 12.4844 138.918 12.6016 139.23 12.8359C139.543 13.0703 139.699 13.3503 139.699 13.6758C139.699 13.8451 139.654 14.0143 139.562 14.1836L134.992 22.8359L135.363 22.5039C136.9 21.6055 138.163 20.9023 139.152 20.3945C140.142 19.8737 140.93 19.4896 141.516 19.2422C141.971 19.0469 142.349 18.9102 142.648 18.832C142.948 18.7409 143.15 18.6953 143.254 18.6953C143.553 18.6953 143.781 18.8125 143.938 19.0469C144.107 19.2682 144.191 19.5482 144.191 19.8867C144.191 20.2643 144.081 20.6484 143.859 21.0391C143.651 21.4297 143.326 21.7096 142.883 21.8789C142.115 22.2695 141.19 22.7057 140.109 23.1875C139.042 23.6562 137.922 24.2096 136.75 24.8477C135.591 25.4727 134.491 26.2214 133.449 27.0938L129.66 33.9492C129.061 35.3815 128.527 36.3581 128.059 36.8789C127.629 37.3607 127.076 37.6016 126.398 37.6016ZM128.703 22.7188C129.107 22.7188 129.615 22.4714 130.227 21.9766C130.839 21.4688 131.424 20.8763 131.984 20.1992C132.557 19.5221 133.039 18.8776 133.43 18.2656C133.82 17.6536 134.016 17.2174 134.016 16.957C134.016 16.3841 133.742 15.9544 133.195 15.668C132.661 15.3815 132.199 15.2383 131.809 15.2383C130.988 15.2383 130.214 15.4987 129.484 16.0195C128.768 16.5273 128.182 17.1979 127.727 18.0312C127.284 18.8516 127.062 19.724 127.062 20.6484C127.062 21.0911 127.154 21.5469 127.336 22.0156C127.518 22.4844 127.974 22.7188 128.703 22.7188Z" fill="#023E8A"/>
</svg>
