<svg xmlns="http://www.w3.org/2000/svg" width="21" height="18" fill="none" viewBox="0 0 21 18">
  <path fill="#023E8A" d="M11.473 14.514C14.77 13 16.446 9.973 16.446 8.297a2.97 2.97 0 0 1-1.19.27c-2.216 0-3.729-1.73-3.729-3.945 0-2.163 1.514-4 4.216-4 2.703 0 4.757 2.54 4.757 5.837 0 5.298-3.514 9.082-7.46 10.92l-1.567-2.866Zm-10.973 0C3.743 13 5.419 9.973 5.419 8.297c-.216.108-.649.27-1.135.27C2.014 8.568.5 6.838.5 4.623c0-2.163 1.568-4 4.216-4 2.703 0 4.757 2.54 4.757 5.837 0 5.298-3.514 9.082-7.46 10.92L.5 14.512Z"/>
</svg>
