<svg width="128" height="107" viewBox="0 0 128 107" fill="none" xmlns="http://www.w3.org/2000/svg">
<path fill-rule="evenodd" clip-rule="evenodd" d="M52.59 0.295899C46.778 0.295899 45.86 2.8669 46.778 9.6139L47.276 13.2729L40.413 13.9149C30.751 14.8209 29.36 15.2069 28.594 17.1969C28.221 18.1649 27.652 26.0499 27.328 34.7209L26.74 50.4859L21.395 53.5449C14.009 57.7699 14.159 59.6989 22.673 69.9679C34.75 84.5329 41.184 91.4559 42.644 91.4559C43.437 91.4559 48.578 89.2019 54.068 86.4469L64.05 81.4379L74.032 86.4469C79.522 89.2019 84.663 91.4559 85.456 91.4559C86.916 91.4559 93.35 84.5329 105.427 69.9679C113.941 59.6989 114.091 57.7699 106.705 53.5449L101.36 50.4859L100.772 34.7209C100.448 26.0499 99.879 18.1649 99.506 17.1969C98.743 15.2139 97.331 14.8179 87.878 13.9359L81.207 13.3139L81.334 7.8899C81.404 4.9069 83 0.295818 75.5 0.295899C65.886 0.296003 60.214 0.295887 52.59 0.295899ZM85.219 19.9909L93.887 20.6549L94.55 28.8059C94.914 33.2879 95.063 39.0799 94.881 41.6749L94.55 46.3939L80.55 37.9339C72.85 33.2799 65.425 29.4729 64.05 29.4729C62.675 29.4729 55.25 33.2799 47.55 37.9339L33.55 46.3939L33.219 41.6749C33.037 39.0799 33.186 33.2829 33.551 28.7929L34.215 20.6299L43.883 19.9919C49.2 19.6409 54.45 19.2419 55.55 19.1049C58.535 18.7329 75.354 19.2349 85.219 19.9909ZM1.71697 90.1229C-1.10503 92.9449 4.59097 101.489 10.621 103.479C15.161 104.978 21.462 103.866 24.825 100.973L27.484 98.6859L30.571 101.04C35.99 105.173 40.954 106.726 46.427 106C52.806 105.154 57.846 103.025 61.3 99.7159L64.05 97.0819L66.8 99.7159C70.254 103.025 75.294 105.154 81.673 106C87.146 106.726 92.11 105.173 97.529 101.04L100.616 98.6859L103.275 100.973C109.104 105.987 118.592 105.02 124 98.8599C130.308 91.6759 126.49 86.2869 120.069 93.3119C116.936 96.7389 115.642 97.4559 112.587 97.4559C109.603 97.4559 108.131 96.6859 104.924 93.4469C100.523 89.0019 98.821 89.1049 95.607 94.0089C93.119 97.8059 86.004 100.72 81.302 99.8669C75.849 98.8769 70.419 95.8739 67.886 92.4479C66.669 90.8019 64.943 89.4559 64.05 89.4559C63.157 89.4559 61.431 90.8019 60.214 92.4479C57.681 95.8739 52.251 98.8769 46.798 99.8669C42.096 100.72 34.981 97.8059 32.493 94.0089C29.279 89.1049 27.577 89.0019 23.176 93.4469C19.969 96.6859 18.497 97.4559 15.513 97.4559C12.479 97.4559 11.165 96.7409 8.16297 93.4559C4.59497 89.5539 3.07297 88.7659 1.71697 90.1229Z" fill="black"/>
</svg>
